<svg width="32" height="32" viewBox="0 0 32 32" fill="none" xmlns="http://www.w3.org/2000/svg">
  <!-- Book shape -->
  <path d="M4 6C4 4.89543 4.89543 4 6 4H14C15.1046 4 16 4.89543 16 6V26C16 27.1046 15.1046 28 14 28H6C4.89543 28 4 27.1046 4 26V6Z" fill="#3B82F6"/>
  <path d="M16 6C16 4.89543 16.8954 4 18 4H26C27.1046 4 28 4.89543 28 6V26C28 27.1046 27.1046 28 26 28H18C16.8954 28 16 27.1046 16 26V6Z" fill="#60A5FA"/>
  <!-- Matrix dots -->
  <circle cx="8" cy="10" r="1.5" fill="white"/>
  <circle cx="12" cy="10" r="1.5" fill="white"/>
  <circle cx="8" cy="14" r="1.5" fill="white"/>
  <circle cx="12" cy="14" r="1.5" fill="white"/>
  <circle cx="8" cy="18" r="1.5" fill="white"/>
  <circle cx="12" cy="18" r="1.5" fill="white"/>
  <!-- Right page lines -->
  <rect x="19" y="10" width="6" height="1.5" rx="0.75" fill="white" fill-opacity="0.7"/>
  <rect x="19" y="14" width="6" height="1.5" rx="0.75" fill="white" fill-opacity="0.7"/>
  <rect x="19" y="18" width="4" height="1.5" rx="0.75" fill="white" fill-opacity="0.7"/>
</svg>
